HIERARCHY
ROOT Hips
{
	OFFSET 0.000000 0.000000 0.000000
	CHANNELS 6 Xposition Yposition Zposition Zrotation Yrotation Xrotation 
	JOINT LowerBack
	{
		OFFSET 0.000000 0.000000 0.000000
		CHANNELS 3 Zrotation Yrotation Xrotation
		JOINT Spine
		{
			OFFSET 0.028270 2.035590 -0.193380
			CHANNELS 3 Zrotation Yrotation Xrotation
			JOINT Spine1
			{
				OFFSET 0.056720 2.048850 -0.042750
				CHANNELS 3 Zrotation Yrotation Xrotation
				JOINT Neck
				{
					OFFSET 0.000000 0.000000 0.000000
					CHANNELS 3 Zrotation Yrotation Xrotation
					JOINT Neck1
					{
						OFFSET -0.054170 1.746240 0.172020
						CHANNELS 3 Zrotation Yrotation Xrotation
						JOINT Head
						{
							OFFSET 0.104070 1.761360 -0.123970
							CHANNELS 3 Zrotation Yrotation Xrotation
							End Site
							{
								OFFSET 0.000000 0.000000 0.000000
							}
						}
					}
				}
				JOINT LeftShoulder
				{
					OFFSET 0.000000 0.000000 0.000000
					CHANNELS 3 Zrotation Yrotation Xrotation
					JOINT LeftArm
					{
						OFFSET 3.362410 1.200890 -0.311210
						CHANNELS 3 Zrotation Yrotation Xrotation
						JOINT LeftForeArm
						{
							OFFSET 4.983000 -0.000000 -0.000000
							CHANNELS 3 Zrotation Yrotation Xrotation
							JOINT LeftHand
							{
								OFFSET 3.483560 -0.000000 -0.000000
								CHANNELS 3 Zrotation Yrotation Xrotation
								JOINT LeftFingerBase
								{
									OFFSET 0.000000 0.000000 0.000000
									CHANNELS 3 Zrotation Yrotation Xrotation
									JOINT LeftHandIndex1
									{
										OFFSET 0.715260 -0.000000 -0.000000
										CHANNELS 3 Zrotation Yrotation Xrotation
										End Site
										{
											OFFSET 0.000000 0.000000 0.000000
										}
									}
								}
								JOINT LThumb
								{
									OFFSET 0.000000 0.000000 0.000000
									CHANNELS 3 Zrotation Yrotation Xrotation
									End Site
									{
										OFFSET 0.000000 0.000000 0.000000
									}
								}
							}
						}
					}
				}
				JOINT RightShoulder
				{
					OFFSET 0.000000 0.000000 0.000000
					CHANNELS 3 Zrotation Yrotation Xrotation
					JOINT RightArm
					{
						OFFSET -3.136600 1.374050 -0.404650
						CHANNELS 3 Zrotation Yrotation Xrotation
						JOINT RightForeArm
						{
							OFFSET -5.241900 -0.000000 -0.000000
							CHANNELS 3 Zrotation Yrotation Xrotation
							JOINT RightHand
							{
								OFFSET -3.444170 -0.000000 -0.000000
								CHANNELS 3 Zrotation Yrotation Xrotation
								JOINT RightFingerBase
								{
									OFFSET 0.000000 0.000000 0.000000
									CHANNELS 3 Zrotation Yrotation Xrotation
									JOINT RightHandIndex1
									{
										OFFSET -0.622530 -0.000000 -0.000000
										CHANNELS 3 Zrotation Yrotation Xrotation
										End Site
										{
											OFFSET 0.000000 0.000000 0.000000
										}
									}
								}
								JOINT RThumb
								{
									OFFSET 0.000000 0.000000 0.000000
									CHANNELS 3 Zrotation Yrotation Xrotation
									End Site
									{
										OFFSET 0.000000 0.000000 0.000000
									}
								}
							}
						}
					}
				}
			}
		}
	}
}
}
MOTION
Frames: 9
Frame Time: 0.008333
27.860922 16.453355 4.832034 -165.917583 -86.277438 -171.990928 7.319528 -3.808566 -1.033655 0.987320 -4.329220 -2.812263 -6.015625 -4.373930 1.944308 7.355757 -10.828553 -5.968733 -2.971234 -0.240869 0.392023 0.000000 0.000000 0.000000 -4.250775 1.573845 2.325841 -45.181353 -11.923037 10.666374 -2.839001 -46.904990 -0.004448 3.841241 -0.475096 -0.019741 -0.169547 0.130869 0.000000 0.000000 0.000000 0.000000 0.000000 0.000000 0.000000 11.214135 -11.139307 1.062953 58.020232 -9.918884 -5.649710 3.829242 29.759178 0.011722 4.674026 4.411071 0.177958 0.104690 -0.036405 -0.000000 0.000000 0.000000 0.000000 0.000000 0.000000 0.000000 
27.703168 16.464450 4.787122 -160.865832 -86.338226 -176.946999 7.819275 -3.800248 -1.019944 1.086076 -4.349654 -2.829423 -6.049680 -4.397020 1.887993 7.395943 -10.545846 -5.973759 -3.045749 -0.246226 0.388930 0.000000 0.000000 0.000000 -4.337920 1.605898 2.334321 -45.969248 -11.102242 10.410394 -2.899160 -45.975752 -0.004249 3.940518 -0.482630 -0.020365 -0.169172 0.124237 0.000000 0.000000 0.000000 0.000000 0.000000 0.000000 0.000000 11.525378 -10.895349 1.053178 57.798525 -9.474877 -5.409944 3.831233 29.652863 0.011642 4.558470 4.424905 0.173957 0.104532 -0.036179 -0.000000 0.000000 0.000000 0.000000 0.000000 0.000000 0.000000 
27.546498 16.478321 4.741409 -156.229565 -86.387553 178.487313 8.264390 -3.804498 -0.989029 1.172154 -4.378346 -2.844369 -6.085123 -4.428528 1.828521 7.450718 -10.228332 -5.961015 -3.124676 -0.252092 0.390466 0.000000 0.000000 0.000000 -4.375136 1.622604 2.338327 -46.806314 -10.252190 10.112351 -2.954343 -44.993828 -0.004110 4.058939 -0.481940 -0.020697 -0.168252 0.117628 0.000000 0.000000 0.000000 0.000000 0.000000 0.000000 0.000000 11.864486 -10.627335 1.040366 57.595014 -8.990927 -5.181142 3.832466 29.500684 0.011558 4.433337 4.444464 0.169855 0.104298 -0.035928 -0.000000 0.000000 0.000000 0.000000 0.000000 0.000000 0.000000 
27.391135 16.494831 4.694924 -152.055784 -86.422462 174.365347 8.654505 -3.815791 -0.946475 1.244834 -4.410015 -2.857284 -6.122636 -4.463051 1.769285 7.519343 -9.882533 -5.932022 -3.206884 -0.258357 0.396284 0.000000 0.000000 0.000000 -4.371831 1.634850 2.338823 -47.672876 -9.401330 9.800229 -3.004590 -43.956204 -0.004014 4.189397 -0.471344 -0.020734 -0.166794 0.111023 0.000000 0.000000 0.000000 0.000000 0.000000 0.000000 0.000000 12.227771 -10.339069 1.023932 57.417202 -8.467774 -4.977132 3.832934 29.303734 0.011470 4.298844 4.466417 0.165354 0.104004 -0.035685 -0.000000 0.000000 0.000000 0.000000 0.000000 0.000000 0.000000 
27.237206 16.513824 4.647698 -148.342313 -86.447241 170.689792 8.990765 -3.829726 -0.899403 1.304125 -4.440786 -2.869810 -6.162605 -4.496769 1.708836 7.600954 -9.517942 -5.884909 -3.291659 -0.265003 0.407112 0.000000 0.000000 0.000000 -4.329811 1.618931 2.335971 -48.559487 -8.530403 9.479365 -3.048121 -42.882045 -0.003930 4.317259 -0.448811 -0.020278 -0.164633 0.104354 0.000000 0.000000 0.000000 0.000000 0.000000 0.000000 0.000000 12.610880 -10.038247 1.006054 57.270296 -7.908609 -4.800585 3.832791 29.062480 0.011384 4.151454 4.490805 0.160453 0.103712 -0.035506 -0.000000 0.000000 0.000000 0.000000 0.000000 0.000000 0.000000 
27.085259 16.535134 4.599880 -145.005926 -86.471385 167.380967 9.278348 -3.843734 -0.854408 1.351421 -4.468893 -2.882700 -6.205023 -4.527891 1.648737 7.694092 -9.145464 -5.821978 -3.377706 -0.271912 0.422445 0.000000 0.000000 0.000000 -4.258408 1.572035 2.331067 -49.450327 -7.652040 9.172094 -3.085021 -41.779457 -0.003839 4.429303 -0.411147 -0.019127 -0.161790 0.097613 0.000000 0.000000 0.000000 0.000000 0.000000 0.000000 0.000000 13.008450 -9.733917 0.987608 57.158233 -7.313507 -4.656784 3.832185 28.779019 0.011307 3.991091 4.517385 0.154952 0.103449 -0.035437 -0.000000 0.000000 0.000000 0.000000 0.000000 0.000000 0.000000 
26.935170 16.558641 4.551772 -141.923000 -86.505328 164.321661 9.524301 -3.856723 -0.817256 1.388750 -4.494139 -2.895687 -6.249909 -4.556097 1.594087 7.797633 -8.771479 -5.749892 -3.463657 -0.278895 0.440434 0.000000 0.000000 0.000000 -4.173296 1.521793 2.326538 -50.324587 -6.820286 8.921998 -3.117979 -40.638520 -0.003741 4.515180 -0.354657 -0.016979 -0.158514 0.090895 0.000000 0.000000 0.000000 0.000000 0.000000 0.000000 0.000000 13.416926 -9.430088 0.967311 57.084302 -6.685655 -4.560239 3.830892 28.462862 0.011231 3.824009 4.542938 0.149151 0.103168 -0.035495 -0.000000 0.000000 0.000000 0.000000 0.000000 0.000000 0.000000 
26.787119 16.584163 4.503447 -139.099012 -86.555269 161.519749 9.726920 -3.867157 -0.791608 1.415874 -4.515312 -2.908676 -6.297917 -4.580070 1.547509 7.911545 -8.392151 -5.673209 -3.548790 -0.285836 0.459795 0.000000 0.000000 0.000000 -4.087851 1.493985 2.325240 -51.159169 -6.078515 8.771767 -3.149698 -39.459556 -0.003647 4.562032 -0.269154 -0.013433 -0.155065 0.084287 0.000000 0.000000 0.000000 0.000000 0.000000 0.000000 0.000000 13.834687 -9.118939 0.944303 57.055864 -6.041166 -4.544675 3.828936 28.128281 0.011151 3.667495 4.563439 0.143551 0.102751 -0.035705 -0.000000 0.000000 0.000000 0.000000 0.000000 0.000000 0.000000 
26.641406 16.611494 4.455734 -136.110551 -86.633303 158.552801 9.902596 -3.875276 -0.781665 1.437061 -4.533866 -2.925306 -6.346293 -4.601595 1.498611 8.031130 -8.050720 -5.588148 -3.632578 -0.292814 0.482002 0.000000 0.000000 0.000000 -3.985195 1.377689 2.322045 -51.990373 -5.286079 8.641363 -3.172777 -38.310806 -0.003493 4.550434 -0.171865 -0.009087 -0.150865 0.077664 0.000000 0.000000 0.000000 0.000000 0.000000 0.000000 0.000000 14.253421 -8.848017 0.928362 57.046406 -5.340359 -4.499619 3.826981 27.752893 0.011112 3.476523 4.598991 0.136952 0.102581 -0.036165 -0.000000 0.000000 0.000000 0.000000 0.000000 0.000000 0.000000 
